<svg width="393" height="393" viewBox="0 0 393 393" fill="none" xmlns="http://www.w3.org/2000/svg">
<path d="M192.086 16.5213C193.092 12.3427 199.036 12.3428 200.042 16.5213L219.167 95.9509C219.927 99.1042 223.878 100.163 226.112 97.8116L282.39 38.5864C285.35 35.4707 290.498 38.4427 289.28 42.5645L266.128 120.915C265.209 124.026 268.102 126.918 271.212 125.999L349.563 102.847C353.685 101.629 356.657 106.777 353.541 109.738L294.316 166.016C291.965 168.25 293.023 172.201 296.176 172.96L375.606 192.086C379.785 193.092 379.785 199.036 375.606 200.042L296.176 219.167C293.023 219.927 291.965 223.878 294.316 226.112L353.541 282.39C356.657 285.35 353.685 290.498 349.563 289.28L271.212 266.128C268.102 265.209 265.209 268.102 266.128 271.212L289.28 349.563C290.498 353.685 285.35 356.657 282.39 353.541L226.112 294.316C223.878 291.965 219.927 293.023 219.167 296.176L200.042 375.606C199.036 379.785 193.092 379.785 192.086 375.606L172.96 296.176C172.201 293.023 168.25 291.965 166.016 294.316L109.738 353.541C106.777 356.657 101.629 353.685 102.847 349.563L125.999 271.212C126.918 268.102 124.026 265.209 120.915 266.128L42.5645 289.28C38.4427 290.498 35.4707 285.35 38.5864 282.39L97.8116 226.112C100.163 223.878 99.1041 219.927 95.9509 219.167L16.5213 200.042C12.3427 199.036 12.3428 193.092 16.5213 192.086L95.9509 172.96C99.1042 172.201 100.163 168.25 97.8116 166.016L38.5864 109.738C35.4707 106.777 38.4427 101.629 42.5645 102.847L120.915 125.999C124.026 126.918 126.918 124.026 125.999 120.915L102.847 42.5645C101.629 38.4427 106.777 35.4707 109.738 38.5864L166.016 97.8116C168.25 100.163 172.201 99.1041 172.96 95.9509L192.086 16.5213Z" fill="current"/>
</svg>
