<svg viewBox="0 0 541 541" fill="current" xmlns="http://www.w3.org/2000/svg">
<path d="M278.742 83.1024L303.102 7.17237C306.202 -2.47763 320.452 -0.227627 320.412 9.91237L320.112 89.6524C320.082 98.2824 331.132 101.872 336.172 94.8724L382.802 30.1824C388.732 21.9624 401.592 28.5124 398.422 38.1424L373.492 113.892C370.792 122.082 380.202 128.912 387.152 123.822L451.492 76.7124C459.672 70.7224 469.872 80.9324 463.882 89.1024L416.772 153.442C411.672 160.402 418.502 169.802 426.702 167.102L502.452 142.172C512.082 139.002 518.632 151.862 510.412 157.792L445.722 204.422C438.722 209.462 442.312 220.522 450.942 220.482L530.682 220.182C540.822 220.142 543.082 234.402 533.422 237.492L457.492 261.852C449.282 264.482 449.282 276.112 457.492 278.742L533.422 303.102C543.072 306.202 540.822 320.452 530.682 320.412L450.942 320.112C442.312 320.082 438.722 331.132 445.722 336.172L510.412 382.802C518.632 388.732 512.082 401.592 502.452 398.422L426.702 373.492C418.512 370.792 411.682 380.202 416.772 387.152L463.882 451.492C469.872 459.672 459.662 469.872 451.492 463.882L387.152 416.772C380.192 411.672 370.792 418.502 373.492 426.702L398.422 502.452C401.592 512.082 388.732 518.632 382.802 510.412L336.172 445.722C331.132 438.722 320.072 442.312 320.112 450.942L320.412 530.682C320.452 540.822 306.192 543.082 303.102 533.422L278.742 457.492C276.112 449.282 264.482 449.282 261.852 457.492L237.492 533.422C234.392 543.072 220.142 540.822 220.182 530.682L220.482 450.942C220.512 442.312 209.462 438.722 204.422 445.722L157.792 510.412C151.862 518.632 139.002 512.082 142.172 502.452L167.102 426.702C169.802 418.512 160.392 411.682 153.442 416.772L89.1024 463.882C80.9224 469.872 70.7224 459.662 76.7124 451.492L123.822 387.152C128.922 380.192 122.092 370.792 113.892 373.492L38.1424 398.422C28.5124 401.592 21.9624 388.732 30.1824 382.802L94.8724 336.172C101.872 331.132 98.2824 320.072 89.6524 320.112L9.91237 320.412C-0.227627 320.452 -2.48763 306.192 7.17237 303.102L83.1024 278.742C91.3124 276.112 91.3124 264.482 83.1024 261.852L7.17237 237.492C-2.47763 234.392 -0.227627 220.142 9.91237 220.182L89.6524 220.482C98.2824 220.512 101.872 209.462 94.8724 204.422L30.1824 157.792C21.9624 151.862 28.5124 139.002 38.1424 142.172L113.892 167.102C122.082 169.802 128.912 160.392 123.822 153.442L76.7124 89.1024C70.7224 80.9224 80.9324 70.7224 89.1024 76.7124L153.442 123.822C160.402 128.922 169.802 122.092 167.102 113.892L142.172 38.1424C139.002 28.5124 151.862 21.9624 157.792 30.1824L204.422 94.8724C209.462 101.872 220.522 98.2824 220.482 89.6524L220.182 9.91237C220.142 -0.227627 234.402 -2.48763 237.492 7.17237L261.852 83.1024C264.482 91.3124 276.112 91.3124 278.742 83.1024Z" 
fill="current" 
stroke="current" stroke-miterlimit="10"/>
</svg>
