<svg
    viewBox="0 0 122 114"
    xmlns="http://www.w3.org/2000/svg"
    >
    <path 
        d="M43.9658 37.0521L67.0479 2L89.4867 37.0494L89.666 37.3296L89.8841 37.0786L120.198 2.18897C120.271 4.78369 120.376 7.55106 120.485 10.4547C121.159 28.2884 122.026 51.2633 116.914 70.9593C113.908 82.5364 108.841 92.956 100.473 100.524C92.1092 108.088 80.4234 112.825 64.1365 112.995C47.8501 113.166 35.8664 108.626 27.02 101.154C18.1691 93.6796 12.4371 83.2525 8.69173 71.614C2.32027 51.8155 1.71554 28.5768 1.24617 10.5397C1.16883 7.56786 1.09517 4.73721 1 2.08643L43.5999 37.1076L43.8136 37.2833L43.9658 37.0521Z" 
        fill="current" 
        stroke="current"/>
</svg>
