<svg viewBox="0 0 466 227" fill="none" xmlns="http://www.w3.org/2000/svg" xmlns:xlink="http://www.w3.org/1999/xlink">
<path d="M88.5 163.807C39.7393 174.87 8.5 159.807 -14 125.807V-57.1934L490 -41.6934L484.5 124.807C477 142.307 408.004 133.235 393.5 192.807C379.5 250.307 322 228.307 256 167.307C190 106.307 148 150.307 88.5 163.807Z" fill="#D9D9D9"/>
<path d="M88.5 163.807C39.7393 174.87 8.5 159.807 -14 125.807V-57.1934L490 -41.6934L484.5 124.807C477 142.307 408.004 133.235 393.5 192.807C379.5 250.307 322 228.307 256 167.307C190 106.307 148 150.307 88.5 163.807Z" fill="url(#pattern0)"/>
<defs>
<pattern id="pattern0" patternContentUnits="objectBoundingBox" width="1" height="1">
</pattern>
</defs>
</svg>
