<svg
        viewBox="0 0 537 541"
        xmlns="http://www.w3.org/2000/svg"
      >
        <path
          d="M195.887 149.302C195.887 149.302 90.7339 24.9722 19.1106 123C-42.0843 206.75 89.9672 270.47 89.9672 270.47C89.9672 270.47 -47.2125 341.884 19.1106 442.5C85.4337 543.116 198.105 386.912 198.105 386.912C198.105 386.912 209.737 575.764 338.701 533.959C466.037 492.683 362.573 347.385 362.573 347.385C362.573 347.385 534.606 385.833 536.103 270.47C537.539 159.882 352.104 208.5 352.104 208.5C352.104 208.5 481.948 90.2307 352.104 15.7232C228.935 -54.9476 195.455 151.749 195.455 151.749L195.887 149.302Z"
          stroke="current"
          fill="current"
          strokeMiterlimit="10"
        />
      </svg>

