<svg width="167" height="167" viewBox="0 0 167 167" fill="none" xmlns="http://www.w3.org/2000/svg">
<path d="M26.1878 19.4575C24.3467 19.4575 22.5811 20.1889 21.2793 21.4907C19.9774 22.7925 19.2461 24.5581 19.2461 26.3992V140.937C19.2461 142.778 19.9774 144.543 21.2793 145.845C22.5811 147.147 24.3467 147.878 26.1878 147.878H140.864C142.705 147.878 144.471 147.147 145.773 145.845C147.074 144.543 147.806 142.778 147.806 140.937V26.3992C147.806 24.5581 147.074 22.7925 145.773 21.4907C144.471 20.1889 142.705 19.4575 140.864 19.4575H26.1878Z" stroke="black" stroke-width="0.767742" stroke-linecap="round" stroke-linejoin="round"/>
<path d="M108.932 42.4343C112.001 42.4343 115 43.3442 117.552 45.049C120.103 46.7538 122.091 49.1768 123.266 52.0118C124.44 54.8467 124.747 57.9662 124.149 60.9757C123.55 63.9853 122.072 66.7497 119.903 68.9195C117.733 71.0892 114.968 72.5668 111.959 73.1655C108.949 73.7641 105.83 73.4569 102.995 72.2826C100.16 71.1083 97.7369 69.1198 96.0321 66.5684C94.3274 64.0171 93.4175 61.0175 93.4175 57.949C93.4175 53.8342 95.052 49.888 97.9616 46.9785C100.871 44.0689 104.817 42.4343 108.932 42.4343ZM69.6422 73.2553L94.7017 98.3147C94.9279 98.5456 95.1979 98.7291 95.4959 98.8543C95.7939 98.9795 96.1138 99.044 96.4371 99.044C96.7603 99.044 97.0803 98.9795 97.3783 98.8543C97.6763 98.7291 97.9463 98.5456 98.1725 98.3147L102.962 93.525C103.424 93.0672 104.048 92.8103 104.698 92.8103C105.348 92.8103 105.972 93.0672 106.433 93.525L133.54 120.632C133.887 120.972 134.124 121.408 134.221 121.884C134.318 122.36 134.27 122.854 134.083 123.302C133.896 123.751 133.579 124.133 133.173 124.399C132.767 124.666 132.291 124.804 131.805 124.797H35.2116C34.766 124.801 34.3281 124.682 33.9456 124.453C33.5632 124.224 33.251 123.895 33.0431 123.501C32.8353 123.107 32.7399 122.663 32.7673 122.218C32.7947 121.774 32.9439 121.345 33.1985 120.979L66.1714 73.7065C66.3658 73.4439 66.6112 73.2232 66.8929 73.0576C67.1746 72.8921 67.4869 72.785 67.8109 72.7429C68.1349 72.7008 68.4641 72.7244 68.7788 72.8125C69.0935 72.9005 69.3871 73.0512 69.6422 73.2553Z" stroke="black" stroke-width="0.767742" stroke-linecap="round" stroke-linejoin="round"/>
</svg>
