<svg width="449" height="249" viewBox="0 0 449 249" fill="none" xmlns="http://www.w3.org/2000/svg">
<path d="M23.1321 1.18182V63H15.6463V9.02983H15.2841L0.191761 19.0511V11.4446L15.6463 1.18182H23.1321ZM67.5941 28.7706V35.4112H40.5487V28.7706H67.5941ZM80.0302 63L107.679 8.3054V7.82244H75.8043V1.18182H115.407V8.18466L87.8782 63H80.0302ZM151.651 1.18182H160.585L181.594 52.4957H182.318L203.327 1.18182H212.262V63H205.259V16.0327H204.655L185.337 63H178.576L159.257 16.0327H158.654V63H151.651V1.18182ZM229.806 63H221.958L244.657 1.18182H252.385L275.083 63H267.235L248.762 10.9616H248.279L229.806 63ZM232.704 38.8523H264.338V45.4929H232.704V38.8523ZM284.712 63V1.18182H305.6C310.43 1.18182 314.394 2.00686 317.493 3.65696C320.592 5.28693 322.886 7.53066 324.375 10.3881C325.864 13.2456 326.609 16.4955 326.609 20.1378C326.609 23.7801 325.864 27.0098 324.375 29.8271C322.886 32.6443 320.602 34.8578 317.523 36.4677C314.444 38.0574 310.51 38.8523 305.721 38.8523H288.817V32.0909H305.479C308.78 32.0909 311.436 31.608 313.448 30.642C315.481 29.6761 316.95 28.3078 317.855 26.5369C318.781 24.746 319.244 22.6129 319.244 20.1378C319.244 17.6626 318.781 15.4994 317.855 13.6481C316.929 11.7968 315.45 10.368 313.418 9.36186C311.386 8.33558 308.699 7.82244 305.359 7.82244H292.198V63H284.712ZM313.81 35.2301L329.023 63H320.33L305.359 35.2301H313.81ZM388.827 20.5H381.341C380.898 18.3468 380.124 16.4553 379.017 14.8253C377.93 13.1953 376.602 11.8269 375.032 10.7202C373.483 9.59328 371.762 8.74811 369.871 8.18466C367.979 7.62121 366.007 7.33949 363.955 7.33949C360.212 7.33949 356.821 8.28527 353.782 10.1768C350.764 12.0684 348.359 14.8555 346.568 18.538C344.797 22.2205 343.912 26.7382 343.912 32.0909C343.912 37.4437 344.797 41.9613 346.568 45.6438C348.359 49.3263 350.764 52.1134 353.782 54.005C356.821 55.8965 360.212 56.8423 363.955 56.8423C366.007 56.8423 367.979 56.5606 369.871 55.9972C371.762 55.4337 373.483 54.5986 375.032 53.4918C376.602 52.3649 377.93 50.9865 379.017 49.3565C380.124 47.7064 380.898 45.8149 381.341 43.6818H388.827C388.263 46.8411 387.237 49.6684 385.748 52.1637C384.259 54.659 382.408 56.782 380.194 58.5327C377.98 60.2633 375.495 61.5813 372.738 62.4869C370.002 63.3924 367.074 63.8452 363.955 63.8452C358.682 63.8452 353.994 62.5573 349.889 59.9815C345.783 57.4058 342.554 53.7434 340.199 48.9943C337.845 44.2453 336.668 38.6108 336.668 32.0909C336.668 25.571 337.845 19.9366 340.199 15.1875C342.554 10.4384 345.783 6.77604 349.889 4.20028C353.994 1.62452 358.682 0.336645 363.955 0.336645C367.074 0.336645 370.002 0.789416 372.738 1.69496C375.495 2.6005 377.98 3.92862 380.194 5.67933C382.408 7.40992 384.259 9.52284 385.748 12.0181C387.237 14.4933 388.263 17.3205 388.827 20.5ZM400.923 63V1.18182H408.409V28.7102H441.371V1.18182H448.857V63H441.371V35.3509H408.409V63H400.923ZM9.15341 247V234.983L54.2841 185.58C59.5805 179.794 63.9422 174.764 67.3693 170.491C70.7964 166.174 73.3333 162.124 74.9801 158.341C76.6714 154.513 77.517 150.508 77.517 146.324C77.517 141.517 76.3599 137.356 74.0455 133.839C71.7756 130.323 68.66 127.608 64.6989 125.695C60.7377 123.781 56.2869 122.824 51.3466 122.824C46.0947 122.824 41.5104 123.914 37.5938 126.095C33.7216 128.232 30.7173 131.236 28.581 135.108C26.4891 138.98 25.4432 143.52 25.4432 148.727H9.6875C9.6875 140.716 11.5346 133.684 15.2287 127.631C18.9228 121.578 23.9522 116.86 30.3168 113.477C36.7259 110.095 43.9138 108.403 51.8807 108.403C59.892 108.403 66.991 110.095 73.1776 113.477C79.3641 116.86 84.2154 121.422 87.7315 127.163C91.2476 132.905 93.0057 139.292 93.0057 146.324C93.0057 151.353 92.0933 156.271 90.2685 161.078C88.4882 165.84 85.3726 171.159 80.9219 177.034C76.5156 182.865 70.3958 189.986 62.5625 198.398L31.8523 231.244V232.312H95.4091V247H9.15341ZM167.578 248.869C157.519 248.869 148.952 246.132 141.875 240.658C134.798 235.139 129.391 227.15 125.652 216.69C121.913 206.187 120.044 193.502 120.044 178.636C120.044 163.86 121.913 151.242 125.652 140.783C129.435 130.279 134.865 122.268 141.942 116.749C149.063 111.185 157.608 108.403 167.578 108.403C177.548 108.403 186.071 111.185 193.148 116.749C200.269 122.268 205.699 130.279 209.438 140.783C213.221 151.242 215.112 163.86 215.112 178.636C215.112 193.502 213.243 206.187 209.504 216.69C205.766 227.15 200.358 235.139 193.281 240.658C186.205 246.132 177.637 248.869 167.578 248.869ZM167.578 234.182C177.548 234.182 185.292 229.375 190.811 219.761C196.33 210.148 199.089 196.439 199.089 178.636C199.089 166.797 197.821 156.716 195.284 148.393C192.792 140.071 189.187 133.728 184.469 129.366C179.795 125.005 174.165 122.824 167.578 122.824C157.697 122.824 149.975 127.697 144.412 137.445C138.848 147.147 136.067 160.878 136.067 178.636C136.067 190.475 137.313 200.534 139.805 208.812C142.298 217.091 145.881 223.389 150.554 227.706C155.272 232.023 160.946 234.182 167.578 234.182ZM240.482 247V234.983L285.612 185.58C290.909 179.794 295.27 174.764 298.697 170.491C302.125 166.174 304.661 162.124 306.308 158.341C308 154.513 308.845 150.508 308.845 146.324C308.845 141.517 307.688 137.356 305.374 133.839C303.104 130.323 299.988 127.608 296.027 125.695C292.066 123.781 287.615 122.824 282.675 122.824C277.423 122.824 272.839 123.914 268.922 126.095C265.05 128.232 262.045 131.236 259.909 135.108C257.817 138.98 256.771 143.52 256.771 148.727H241.016C241.016 140.716 242.863 133.684 246.557 127.631C250.251 121.578 255.28 116.86 261.645 113.477C268.054 110.095 275.242 108.403 283.209 108.403C291.22 108.403 298.319 110.095 304.506 113.477C310.692 116.86 315.544 121.422 319.06 127.163C322.576 132.905 324.334 139.292 324.334 146.324C324.334 151.353 323.421 156.271 321.597 161.078C319.816 165.84 316.701 171.159 312.25 177.034C307.844 182.865 301.724 189.986 293.891 198.398L263.18 231.244V232.312H326.737V247H240.482ZM400.509 248.869C391.696 248.869 383.84 247.356 376.942 244.33C370.088 241.303 364.635 237.097 360.585 231.712C356.58 226.282 354.399 219.984 354.043 212.818H370.866C371.223 217.224 372.736 221.03 375.406 224.234C378.077 227.394 381.571 229.842 385.888 231.578C390.205 233.314 394.99 234.182 400.241 234.182C406.116 234.182 411.324 233.158 415.864 231.111C420.403 229.063 423.964 226.215 426.545 222.565C429.127 218.916 430.418 214.688 430.418 209.881C430.418 204.851 429.171 200.423 426.679 196.595C424.187 192.723 420.537 189.696 415.73 187.516C410.923 185.335 405.048 184.244 398.105 184.244H387.156V169.557H398.105C403.535 169.557 408.297 168.578 412.392 166.619C416.531 164.661 419.758 161.902 422.072 158.341C424.431 154.78 425.611 150.597 425.611 145.79C425.611 141.161 424.587 137.133 422.54 133.706C420.492 130.279 417.599 127.608 413.861 125.695C410.167 123.781 405.805 122.824 400.776 122.824C396.058 122.824 391.607 123.692 387.423 125.428C383.284 127.119 379.902 129.589 377.276 132.838C374.65 136.043 373.225 139.915 373.003 144.455H356.98C357.247 137.289 359.406 131.013 363.456 125.628C367.506 120.198 372.803 115.97 379.345 112.943C385.932 109.917 393.165 108.403 401.043 108.403C409.499 108.403 416.754 110.117 422.807 113.544C428.86 116.927 433.511 121.4 436.76 126.963C440.009 132.527 441.634 138.535 441.634 144.989C441.634 152.688 439.608 159.253 435.558 164.683C431.553 170.113 426.1 173.874 419.202 175.966V177.034C427.836 178.458 434.579 182.13 439.43 188.05C444.282 193.925 446.707 201.202 446.707 209.881C446.707 217.313 444.682 223.99 440.632 229.909C436.626 235.784 431.152 240.413 424.209 243.795C417.266 247.178 409.366 248.869 400.509 248.869Z" fill="black"/>
</svg>
