<svg width="39" height="39" viewBox="0 0 39 39" fill="none" xmlns="http://www.w3.org/2000/svg">
<path d="M37.7812 8.34083C36.4097 8.93677 34.9586 9.32938 33.4737 9.50626C35.0342 8.59249 36.2078 7.1408 36.7743 5.42345C35.2989 6.28617 33.6874 6.89149 32.0089 7.21349C31.3021 6.47274 30.4521 5.88346 29.5105 5.48145C28.5688 5.07945 27.5553 4.87312 26.5314 4.87501C22.3862 4.87501 19.0315 8.18087 19.0315 12.2561C19.0286 12.8229 19.0936 13.3881 19.225 13.9395C16.2526 13.8001 13.3419 13.0418 10.6793 11.7132C8.01666 10.3845 5.6607 8.51463 3.76213 6.22325C3.09606 7.34612 2.74381 8.62727 2.74219 9.93282C2.74219 12.4922 4.07748 14.7545 6.09375 16.0799C4.89917 16.0515 3.72906 15.7354 2.68277 15.1582V15.2496C2.68277 18.8297 5.27262 21.808 8.70035 22.486C8.05577 22.6578 7.39154 22.7448 6.72445 22.7449C6.2511 22.7458 5.77883 22.6998 5.31451 22.6078C6.26742 25.5404 9.04084 27.6733 12.3261 27.7342C9.6566 29.7915 6.3791 30.9035 3.00879 30.8953C2.41055 30.8944 1.81286 30.8588 1.21875 30.7887C4.64738 32.978 8.6329 34.1361 12.7009 34.125C26.5154 34.125 34.0625 22.8744 34.0625 13.1168C34.0625 12.7969 34.0542 12.477 34.0389 12.1647C35.5038 11.1227 36.7711 9.82779 37.7812 8.34083Z" fill="current"/>
</svg>
