<svg viewBox="0 0 217 90" fill="none" xmlns="http://www.w3.org/2000/svg">
<path d="M203.414 89.4142C202.633 90.1953 201.367 90.1953 200.586 89.4142L187.858 76.6863C187.077 75.9052 187.077 74.6389 187.858 73.8579C188.639 73.0768 189.905 73.0768 190.686 73.8579L202 85.1716L213.314 73.8579C214.095 73.0768 215.361 73.0768 216.142 73.8579C216.923 74.6389 216.923 75.9052 216.142 76.6863L203.414 89.4142ZM0 0H189V4H0V0ZM204 15V88H200V15H204ZM189 0C197.284 0 204 6.71573 204 15H200C200 8.92487 195.075 4 189 4V0Z" fill="current"/>
</svg>
