<svg viewBox="0 0 466 228" fill="none" xmlns="http://www.w3.org/2000/svg" xmlns:xlink="http://www.w3.org/1999/xlink">
<path d="M88.5 163.903C39.7393 174.966 8.5 159.903 -14 125.903V-57.0969L490 -41.5969L484.5 194.903C471.833 199.07 424.195 231.194 363 227.403C306.5 223.903 291 197.403 256 167.403C221 137.403 148 150.403 88.5 163.903Z" fill="#D9D9D9"/>
<path d="M88.5 163.903C39.7393 174.966 8.5 159.903 -14 125.903V-57.0969L490 -41.5969L484.5 194.903C471.833 199.07 424.195 231.194 363 227.403C306.5 223.903 291 197.403 256 167.403C221 137.403 148 150.403 88.5 163.903Z" fill="url(#pattern0)"/>
<defs>
<pattern id="pattern0" patternContentUnits="objectBoundingBox" width="1" height="1">
</pattern>
</defs>
</svg>