<svg viewBox="0 0 466 264" fill="none" xmlns="http://www.w3.org/2000/svg" xmlns:xlink="http://www.w3.org/1999/xlink">
<path d="M106.5 158.903C56.5 158.903 8.5 101.403 -14 67.4031V-57.0969L520 -41.5969L514.5 194.903C501.833 199.07 455.312 263.403 394 263.403C314 263.403 317 209.903 256 167.403C195 124.903 172.5 158.903 106.5 158.903Z" fill="#D9D9D9"/>
<path d="M106.5 158.903C56.5 158.903 8.5 101.403 -14 67.4031V-57.0969L520 -41.5969L514.5 194.903C501.833 199.07 455.312 263.403 394 263.403C314 263.403 317 209.903 256 167.403C195 124.903 172.5 158.903 106.5 158.903Z" fill="url(#pattern0)"/>
<defs>
<pattern id="pattern0" patternContentUnits="objectBoundingBox" width="1" height="1">
</pattern>
</defs>
</svg>