<svg  viewBox="0 0 43 43" fill="current" xmlns="http://www.w3.org/2000/svg">
<path d="M41.0437 28.3527C41.812 26.1497 42.2039 23.8331 42.203 21.5C42.2052 19.1582 41.8061 16.8334 41.023 14.6265V14.5437C39.589 10.5188 36.9448 7.03612 33.4531 4.57347C29.9614 2.11082 25.7934 0.788818 21.5206 0.788818C17.2479 0.788818 13.0798 2.11082 9.58811 4.57347C6.09644 7.03612 3.45225 10.5188 2.01827 14.5437C2.00932 14.5778 2.00241 14.6123 1.99756 14.6472C0.423339 19.0872 0.423339 23.9334 1.99756 28.3734C1.99756 28.4148 2.01827 28.4355 2.01827 28.4562C3.45012 32.4819 6.09246 35.966 9.58281 38.4305C13.0732 40.895 17.2406 42.2192 21.5133 42.2215C25.7861 42.2237 29.9548 40.9039 33.4478 38.4431C36.9408 35.9823 39.5868 32.5011 41.023 28.4769C41.0207 28.4345 41.0277 28.3921 41.0437 28.3527ZM21.4999 39.7187C18.5187 36.9238 16.3034 33.1558 15.1026 28.9531H27.8972C26.6964 33.1558 24.4812 36.9238 21.4999 39.7187ZM14.6679 27.2968C13.84 23.4766 13.84 19.5233 14.6679 15.7031H28.3319C29.1598 19.5233 29.1598 23.4766 28.3319 27.2968H14.6679ZM2.45303 21.5C2.44578 19.5315 2.75331 17.5745 3.36397 15.7031H12.9702C12.1973 19.529 12.1973 23.4709 12.9702 27.2968H3.36397C2.75331 25.4254 2.44578 23.4685 2.45303 21.5ZM21.4999 3.28121C24.4812 6.07613 26.6964 9.8441 27.8972 14.0468H15.1026C16.3034 9.8441 18.5187 6.07613 21.4999 3.28121ZM30.0296 15.7031H39.6358C40.8503 19.4723 40.8503 23.5277 39.6358 27.2968H30.0296C30.8025 23.4709 30.8025 19.529 30.0296 15.7031ZM39.0355 14.0468H29.6569C28.5317 9.6931 26.2746 5.71459 23.1147 2.51519C26.5642 2.81461 29.8675 4.04565 32.6717 6.07674C35.4758 8.10783 37.6754 10.8627 39.0355 14.0468ZM19.9058 2.51519C16.7328 5.70796 14.4675 9.68829 13.3429 14.0468H3.96436C5.32601 10.8597 7.52879 8.10298 10.3369 6.07168C13.145 4.04037 16.4526 2.811 19.9058 2.51519ZM3.96436 28.9531H13.3429C14.523 33.4043 16.7796 37.4 19.9058 40.4847C16.4526 40.1889 13.145 38.9595 10.3369 36.9282C7.52879 34.8969 5.32601 32.1402 3.96436 28.9531ZM23.1147 40.4847C26.2202 37.4 28.4769 33.4043 29.6569 28.9531H39.0355C37.6754 32.1373 35.4758 34.8921 32.6717 36.9232C29.8675 38.9543 26.5642 40.1853 23.1147 40.4847Z" fill="current"/>
</svg>
