<svg width="45" height="45" viewBox="0 0 45 45" fill="none" xmlns="http://www.w3.org/2000/svg">
<path d="M33.75 5.625H11.25C8.0625 5.625 5.625 8.0625 5.625 11.25V33.75C5.625 36.9375 8.0625 39.375 11.25 39.375H33.75C36.9375 39.375 39.375 36.9375 39.375 33.75V11.25C39.375 8.0625 36.9375 5.625 33.75 5.625ZM22.5 16.875C25.6875 16.875 28.125 19.3125 28.125 22.5C28.125 25.6875 25.6875 28.125 22.5 28.125C19.3125 28.125 16.875 25.6875 16.875 22.5C16.875 19.3125 19.3125 16.875 22.5 16.875ZM29.625 13.125C29.625 11.8125 30.75 10.875 31.875 10.875C33 10.875 34.125 12 34.125 13.125C34.125 14.25 33.1875 15.375 31.875 15.375C30.5625 15.375 29.625 14.4375 29.625 13.125ZM33.75 35.625H11.25C10.125 35.625 9.375 34.875 9.375 33.75V22.5H13.125C13.125 27.75 17.25 31.875 22.5 31.875C27.75 31.875 31.875 27.75 31.875 22.5H35.625V33.75C35.625 34.875 34.875 35.625 33.75 35.625Z" fill="current"/>
</svg>
