<svg width="10" height="18" viewBox="0 0 10 18" fill="black" stroke="none" xmlns="http://www.w3.org/2000/svg">
<path d="M3.72687 12.2056V11.7646C3.73232 10.9042 3.82761 10.2045 4.01274 9.66548C4.19787 9.12642 4.47013 8.67176 4.8295 8.30149C5.19432 7.92578 5.64626 7.56641 6.18533 7.22337C6.58826 6.962 6.92586 6.68703 7.19811 6.39844C7.47581 6.1044 7.68544 5.78314 7.82702 5.43466C7.97403 5.08073 8.04754 4.69685 8.04754 4.28303C8.04754 3.69496 7.90869 3.1804 7.63099 2.73935C7.35874 2.2983 6.98847 1.95798 6.5202 1.71839C6.05192 1.47337 5.53192 1.35085 4.96018 1.35085C4.41568 1.35085 3.90656 1.47064 3.43284 1.71023C2.96456 1.94436 2.58068 2.29285 2.28121 2.75568C1.98717 3.21307 1.82654 3.77936 1.79932 4.45455H0.255637C0.282863 3.55611 0.506111 2.77746 0.925382 2.11861C1.34465 1.45975 1.9055 0.950639 2.60791 0.591264C3.31033 0.226444 4.09442 0.0440335 4.96018 0.0440335C5.86407 0.0440335 6.65905 0.231889 7.34513 0.6076C8.03121 0.977864 8.56755 1.48698 8.95415 2.13494C9.34075 2.77746 9.53405 3.51527 9.53405 4.34837C9.53405 4.89832 9.44693 5.39927 9.27268 5.85121C9.09844 6.30315 8.83708 6.7197 8.48859 7.10085C8.14555 7.48201 7.71539 7.84138 7.19811 8.17898C6.70805 8.50568 6.31873 8.82966 6.03014 9.15092C5.74155 9.47218 5.53464 9.83973 5.4094 10.2536C5.28417 10.6619 5.2161 11.1656 5.20521 11.7646V12.2056H3.72687ZM4.51096 17.1225C4.1897 17.1225 3.91201 17.0082 3.67787 16.7795C3.44917 16.5453 3.33483 16.2676 3.33483 15.9464C3.33483 15.6197 3.44917 15.342 3.67787 15.1133C3.91201 14.8846 4.1897 14.7702 4.51096 14.7702C4.83222 14.7702 5.1072 14.8846 5.33589 15.1133C5.57003 15.342 5.6871 15.6197 5.6871 15.9464C5.6871 16.1587 5.63265 16.3548 5.52375 16.5344C5.42029 16.7141 5.27872 16.8584 5.09903 16.9673C4.92479 17.0708 4.72877 17.1225 4.51096 17.1225Z" stroke="none" fill="current"/>
</svg>
