<svg width="32" height="32" viewBox="0 0 32 32" fill="none" xmlns="http://www.w3.org/2000/svg">
<g clip-path="url(#clip0_506_2515)">
<path d="M3.46096 16.366C3.61153 16.0088 3.69028 15.6255 3.69271 15.2379C3.69775 14.4553 3.39177 13.7027 2.84204 13.1457C2.41079 12.7087 1.85724 12.4201 1.26084 12.3135L1.27991 9.49105L30.3103 9.68819L30.2908 12.5088C28.8971 12.7361 27.8297 13.9395 27.8198 15.4007C27.8099 16.8622 28.863 18.0803 30.2526 18.3278L30.2332 21.1489L1.2024 20.9507L1.22261 18.1314C1.43841 18.0957 1.65008 18.0361 1.85364 17.9533C2.21265 17.8072 2.53938 17.5918 2.81516 17.3195C3.09095 17.0471 3.31039 16.7231 3.46096 16.366L3.00023 16.1717L3.46096 16.366Z" stroke="current"/>
</g>
<defs>
<clipPath id="clip0_506_2515">
<rect width="32" height="32" fill="white"/>
</clipPath>
</defs>
</svg>
